<svg width="156" height="77" viewBox="0 0 156 77" fill="none" xmlns="http://www.w3.org/2000/svg">
<path d="M117.42 77C105.251 77 94.0225 71.2775 86.7064 61.2088C84.968 58.8184 85.475 55.4139 87.8654 53.603C90.2558 51.792 93.6611 52.3715 95.472 54.762C100.76 61.9332 108.728 66.0621 117.42 66.0621C132.56 66.0621 144.945 53.7478 144.945 38.5361C144.945 23.3247 132.632 11.0105 117.42 11.0105C107.134 11.0105 97.4271 16.5155 92.1392 25.2802L72.9435 57.2248C65.6998 69.3217 52.4443 76.7834 38.3916 76.7834C17.2401 76.7834 0 59.5428 0 38.3913C0 17.2398 17.2401 0 38.3916 0C50.5609 0 61.7885 5.72242 69.1043 15.7911C70.8428 18.1815 70.3358 21.5864 67.9454 23.3973C65.4825 25.1361 62.1508 24.6283 60.3399 22.2381C55.052 15.0669 47.084 10.938 38.3916 10.938C23.2523 10.938 10.8655 23.2522 10.8655 38.4637C10.8655 53.6754 23.1799 65.9904 38.3916 65.9904C48.6776 65.9904 58.384 60.4845 63.6716 51.7196L82.8673 19.7755C90.111 7.67857 103.368 0.217529 117.42 0.217529C138.572 0.217529 155.811 17.4574 155.811 38.6086C155.811 59.7601 138.572 77 117.42 77Z" fill="url(#paint0_linear_8544_12)"/>
<defs>
<linearGradient id="paint0_linear_8544_12" x1="77.9055" y1="0" x2="77.9055" y2="77" gradientUnits="userSpaceOnUse">
<stop stop-color="#F98BFC"/>
<stop offset="1" stop-color="#F35383"/>
</linearGradient>
</defs>
</svg>
